<svg xmlns="http://www.w3.org/2000/svg" width="1000" height="816.73889" viewBox="0 0 264.58333 216.09551"><path d="M576.99-1223.503h-20.674v-18.974h20.35v4.202h-14.818v3.231h14.027v3.964h-14.019v3.268h15.134v4.318zM695.941-1223.503h-20.349v-18.674h20.032v4.116h-14.578v3.178h13.805v3.898h-13.805v3.218h14.895v4.252zM605.024-1223.503h-8.364l-11.014-14.191h-.107v14.191h-5.474v-18.974h8.5l10.878 14.208h.107v-14.208h5.486v18.974zM671.316-1223.503h-8.364l-11.014-14.191h-.107v14.191h-5.5v-18.974h8.5l10.879 14.208h.107v-14.208h5.499zM621.187-1223.252q-2.63 0-4.527-.132a16.954 16.954 0 0 1-3.256-.485 6.215 6.215 0 0 1-2.169-1.017 4.272 4.272 0 0 1-1.3-1.688 8.615 8.615 0 0 1-.647-2.523 33.1 33.1 0 0 1-.16-3.507v-.555a32.26 32.26 0 0 1 .168-3.532 8.615 8.615 0 0 1 .634-2.535 4.342 4.342 0 0 1 1.305-1.683 6.05 6.05 0 0 1 2.173-.997 16.966 16.966 0 0 1 3.248-.481q1.914-.123 4.527-.123h.823q2.19 0 3.837.095a19.79 19.79 0 0 1 2.827.346 6.886 6.886 0 0 1 1.955.683 3.49 3.49 0 0 1 1.235 1.1 4.219 4.219 0 0 1 .622 1.6 12.093 12.093 0 0 1 .172 2.178v.728h-5.35v-.23a2.638 2.638 0 0 0-.202-1.087 1.49 1.49 0 0 0-.786-.704 5.725 5.725 0 0 0-1.647-.37q-1.061-.103-2.798-.108h-.47q-1.576 0-2.691.053a10.29 10.29 0 0 0-1.857.235 3.103 3.103 0 0 0-1.173.523 2.013 2.013 0 0 0-.65.918 5.437 5.437 0 0 0-.272 1.44c-.04.572-.062 1.26-.062 2.058v.338c0 .786.021 1.457.062 2.016a5.305 5.305 0 0 0 .272 1.412 1.988 1.988 0 0 0 .65.91 3.103 3.103 0 0 0 1.173.523 10.34 10.34 0 0 0 1.857.234q1.115.058 2.691.053h.47c.856 0 1.592 0 2.21-.045.617-.045 1.14-.082 1.564-.148a3.93 3.93 0 0 0 1.012-.284 1.543 1.543 0 0 0 .59-.46 1.498 1.498 0 0 0 .275-.647 5.388 5.388 0 0 0 .066-.873v-.526h-7.281v-3.664h12.566v4.215a14.216 14.216 0 0 1-.177 2.4 5.133 5.133 0 0 1-.643 1.782 3.815 3.815 0 0 1-1.234 1.235 6.651 6.651 0 0 1-1.988.786 18.155 18.155 0 0 1-2.882.412c-1.12.082-2.42.122-3.91.122zM642.298-1223.457h-5.56v-18.835h5.56zM513.683-1252.417q-4.034 0-7.071-.218a32.648 32.648 0 0 1-5.244-.737 12.492 12.492 0 0 1-3.65-1.416 7.116 7.116 0 0 1-2.31-2.239 8.94 8.94 0 0 1-1.214-3.202 23.185 23.185 0 0 1-.354-4.338v-21.403h9.755v18.242q0 1.691.119 2.905a7.03 7.03 0 0 0 .482 2.058 3.35 3.35 0 0 0 1.05 1.383 5.087 5.087 0 0 0 1.814.824 13.953 13.953 0 0 0 2.779.411 71.22 71.22 0 0 0 3.939.095h.823q2.284 0 3.935-.107a15.735 15.735 0 0 0 2.782-.391 4.886 4.886 0 0 0 1.815-.823 3.49 3.49 0 0 0 1.046-1.383 6.898 6.898 0 0 0 .485-2.058q.115-1.235.115-2.882v-18.278h9.76v21.403a25.321 25.321 0 0 1-.33 4.325 8.845 8.845 0 0 1-1.181 3.215 7.034 7.034 0 0 1-2.285 2.239 12.389 12.389 0 0 1-3.642 1.416 32.66 32.66 0 0 1-5.264.737q-3.067.214-7.142.218zM584.7-1252.825h-14.587l-19.205-24.819h-.19v24.82h-9.565v-33.196h14.817l18.97 24.844h.186v-24.844h9.565v33.179zM613.458-1269.26c1.683 0 3.02-.05 4.02-.152a5.441 5.441 0 0 0 2.273-.646 2.247 2.247 0 0 0 1.012-1.354 9.096 9.096 0 0 0 .24-2.301v-.572a8.965 8.965 0 0 0-.24-2.272 2.14 2.14 0 0 0-1.024-1.334 5.709 5.709 0 0 0-2.285-.621c-1-.103-2.33-.153-3.996-.153h-12.159v9.405zm17.369 16.435h-9.64v-2.691a23.008 23.008 0 0 0-.115-2.503 5.091 5.091 0 0 0-.498-1.774 3.033 3.033 0 0 0-1.058-1.165 5.326 5.326 0 0 0-1.802-.679 17.513 17.513 0 0 0-2.758-.32q-1.647-.088-3.902-.088h-9.755v9.22h-9.664v-33.195h25.737a36.554 36.554 0 0 1 6.668.502 9.52 9.52 0 0 1 4.116 1.68 6.059 6.059 0 0 1 2.086 3.119 17.143 17.143 0 0 1 .577 4.8v1.164a17.077 17.077 0 0 1-.305 3.42 7.438 7.438 0 0 1-.992 2.523 5.762 5.762 0 0 1-1.766 1.75 8.409 8.409 0 0 1-2.663 1.05v.189a14.262 14.262 0 0 1 2.861.728 3.84 3.84 0 0 1 1.758 1.31 5.285 5.285 0 0 1 .872 2.275 22.473 22.473 0 0 1 .235 3.593v5.075zM673.217-1252.825h-36.056v-33.195h35.488v7.34h-25.827v5.642h24.46v6.931h-24.46v5.717h26.395v7.549zM705.815-1265.683l-6.762-13.315h-.239l-6.713 13.315zm17.073 12.883h-10.52l-3.042-5.956h-20.69l-2.993 5.956h-10.442l17.818-33.174h11.973zM758.421-1252.8h-31.956v-33.174h9.755v25.473h22.201v7.718zM666.014-1362.576c-1.156 5.58-6.305 19.896-22.716 27.65l-6.585-7.408-11.113 11.179a41.044 41.044 0 0 1-32.459-16.65 16.003 16.003 0 0 0 3.639.684c1.82.033 3.79-.634 3.79-3.704v-30.15a4.964 4.964 0 0 0-6.247-4.968c-5.145 1.178-9.261 14.023-9.261 14.023a40.85 40.85 0 0 1 14.142-31.306c7.664-6.494 15.15-8.742 20.84-9.623-5.62 3.203-8.78 8.43-8.78 12.817 0 7.035 4.247 6.203 5.507 5.166v40.715a6.586 6.586 0 0 0 .823 1.436 6.005 6.005 0 0 0 4.927 2.486c4.256 0 9.775-4.856 9.775-4.856v-32.969c0-3.355-2.527-7.409-5.058-8.792 0 0 4.684-.823 8.306 1.939a30.54 30.54 0 0 1 2.165-2.383c8.421-8.273 16.369-10.62 22.987-11.797 0 0-12.047 9.467-12.047 22.144 0 9.438.243 32.45.243 32.45 4.482 4.306 11.121-1.91 17.122-8.083z" class="cls-1" style="stroke-width:.41159502" transform="translate(-493.838 1439.347)"/><path d="M626.13-1439.347a67.119 67.119 0 1 0 67.124 67.115 67.115 67.115 0 0 0-67.123-67.115zm0 131.55a64.435 64.435 0 1 1 64.432-64.435 64.435 64.435 0 0 1-64.431 64.435z" class="cls-1" style="stroke-width:.41159502" transform="translate(-493.838 1439.347)"/></svg>